<?xml version="1.0" encoding="iso-8859-1"?>
<!-- Generator: Adobe Illustrator 19.0.0, SVG Export Plug-In . SVG Version: 6.00 Build 0)  -->
<svg version="1.1" id="Layer_1" xmlns="http://www.w3.org/2000/svg" xmlns:xlink="http://www.w3.org/1999/xlink" x="0px" y="0px"
	 viewBox="0 0 496 496" style="enable-background:new 0 0 496 496;" xml:space="preserve">
<g>
	<rect x="7.728" y="312" style="fill:#F9BA48;" width="224.24" height="144"/>
	<rect x="279.968" y="224" style="fill:#F9BA48;" width="208" height="160"/>
</g>
<g>
	<path style="fill:#333333;" d="M216,72h-25.472c0.896-2.512,1.472-5.184,1.472-8c0-13.232-10.768-24-24-24h-24V16
		c0-8.824-7.176-16-16-16h-16c-8.824,0-16,7.176-16,16v24H72c-13.232,0-24,10.768-24,24c0,2.816,0.576,5.488,1.472,8H24
		C10.768,72,0,82.768,0,96v69.552c0,8.88,3.456,17.224,9.728,23.496l25.232,25.224c3.2,3.208,5.04,7.648,5.04,12.176v12.424
		c0,4.016-1.416,7.936-3.992,11.024L7.696,283.864C2.736,289.816,0,297.376,0,305.136V472c0,13.232,10.768,24,24,24h192
		c13.232,0,24-10.768,24-24V305.136c0-7.76-2.736-15.312-7.704-21.272l-28.304-33.968c-2.576-3.088-3.992-7-3.992-11.024v-12.424
		c0-4.528,1.832-8.968,5.04-12.168l25.232-25.232c6.272-6.288,9.728-14.624,9.728-23.496V96C240,82.768,229.232,72,216,72z M112,16
		h16v24h-16V16z M64,64c0-4.408,3.592-8,8-8c0,0,15,0,24,0c18,0,30,0,48,0c9,0,24,0,24,0c4.408,0,8,3.592,8,8s-3.592,8-8,8H72
		C67.592,72,64,68.408,64,64z M215.992,479.992h-192c-4.408,0-8-3.592-8-8V464H192v-16H15.992V320h208v128H208v16h15.992v7.992
		C223.992,476.4,220.4,479.992,215.992,479.992z M223.984,165.56c0,4.592-1.792,8.92-5.04,12.176L193.72,202.96
		c-6.184,6.176-9.728,14.736-9.728,23.488v12.424c0,7.76,2.728,15.312,7.696,21.272L220,294.112
		c2.328,2.792,3.648,6.272,3.896,9.888H16.088c0.24-3.616,1.568-7.096,3.896-9.896l28.312-33.968
		c4.96-5.968,7.696-13.52,7.696-21.272V226.44c0-8.744-3.544-17.304-9.728-23.488L21.04,177.728
		c-3.248-3.248-5.04-7.576-5.04-12.176V96c0-4.408,3.592-8,8-8v0.008h191.984c4.408,0,8,3.592,8,8V165.56z"/>
	<rect x="167.968" y="104" style="fill:#333333;" width="40" height="16"/>
	<path style="fill:#333333;" d="M159.912,360.032l-29.672-0.024l5.52-22.064h-0.008v-0.008c0.904-3.6-0.792-7.344-4.088-9.048
		c-3.288-1.704-7.328-0.912-9.744,1.904l-48,56c-2.024,2.376-2.496,5.712-1.192,8.552C74.04,398.176,76.872,400,80,400h20.184
		l-11.616,29.024c-1.416,3.528-0.144,7.568,3.024,9.656c1.344,0.888,2.88,1.32,4.4,1.32c2.072,0,4.12-0.792,5.664-2.352
		l63.912-63.96c2.28-2.288,2.968-5.72,1.728-8.712C166.064,361.984,163.144,360.032,159.912,360.032z M119.432,394.968
		c0-0.008,0-0.016,0.008-0.024L123.816,384H112H97.392l14.624-17.056l-2.264,9.048l30.872,0.032l-22.704,22.72L119.432,394.968z"/>
	<rect x="31.968" y="104" style="fill:#333333;" width="120" height="16"/>
	<path style="fill:#333333;" d="M496,149.336L480,128h8v-16h-20H300h-20v16h8l-16,21.336v309.328L288,480h-8v16h20h168h20v-16h-8
		l16-21.328V149.336z M480,392v56H288v-56h160v-16H288V232h192v144h-16v16H480z M288,216v-56h192v56H288z M296.008,144L308,128.008
		h152L471.992,144H296.008z M308,480l-12-16h176l-12,16H308z"/>
	<path style="fill:#333333;" d="M423.912,280.032l-29.672-0.024l5.52-22.064h-0.008v-0.008c0.904-3.6-0.792-7.344-4.088-9.048
		c-3.28-1.704-7.328-0.92-9.744,1.904l-48,56c-2.024,2.376-2.496,5.712-1.192,8.552C338.04,318.176,340.872,320,344,320h20.184
		l-11.616,29.024c-1.416,3.528-0.144,7.568,3.024,9.656c1.344,0.888,2.88,1.32,4.4,1.32c2.072,0,4.12-0.792,5.664-2.352
		l63.912-63.96c2.28-2.288,2.968-5.72,1.728-8.712C430.064,281.984,427.144,280.032,423.912,280.032z M383.432,314.968
		c0-0.008,0-0.016,0.008-0.024L387.816,304H376h-14.608l14.624-17.056l-2.264,9.048l30.872,0.032l-22.704,22.72L383.432,314.968z"/>
</g>
<g>
</g>
<g>
</g>
<g>
</g>
<g>
</g>
<g>
</g>
<g>
</g>
<g>
</g>
<g>
</g>
<g>
</g>
<g>
</g>
<g>
</g>
<g>
</g>
<g>
</g>
<g>
</g>
<g>
</g>
</svg>
