<?xml version="1.0" encoding="iso-8859-1"?>
<!-- Generator: Adobe Illustrator 19.0.0, SVG Export Plug-In . SVG Version: 6.00 Build 0)  -->
<svg version="1.1" id="Layer_1" xmlns="http://www.w3.org/2000/svg" xmlns:xlink="http://www.w3.org/1999/xlink" x="0px" y="0px"
	 viewBox="0 0 496 496" style="enable-background:new 0 0 496 496;" xml:space="preserve">
<polygon style="fill:#F9BA48;" points="312,248 408,248 408,176 8,176 8,368 312,368 "/>
<g>
	<rect x="167.968" y="264" style="fill:#333333;" width="16" height="16"/>
	<rect x="199.968" y="264" style="fill:#333333;" width="16" height="16"/>
	<rect x="231.968" y="264" style="fill:#333333;" width="16" height="16"/>
	<path style="fill:#333333;" d="M416,240V104c0-30.872-25.12-56-56-56V0H56v48C25.12,48,0,73.128,0,104v336c0,30.872,25.12,56,56,56
		h257.224H320h166.776l9.112-54.688L496,240L416,240L416,240z M480,434.64c-10.552,4.048-39.176,13.352-80.008,13.352
		c-40.816,0-69.424-9.288-79.992-13.344V304v-48h160V434.64z M144,304c0,8.824-7.176,16-16,16s-16-7.176-16-16v-64
		c0-8.824,7.176-16,16-16s16,7.176,16,16V304z M96,288H80v-32h16V288z M160,256h96v32h-96V256z M272,240c0-8.824,7.176-16,16-16
		s16,7.176,16,16v64c0,8.824-7.176,16-16,16s-16-7.176-16-16V240z M320,240c0-17.648-14.352-32-32-32s-32,14.352-32,32h-96
		c0-17.648-14.352-32-32-32s-32,14.352-32,32H64v64h32c0,17.648,14.352,32,32,32c17.64,0,32-14.352,32-32h96
		c0,17.648,14.352,32,32,32c5.856,0,11.272-1.696,16-4.448V360H48v16h256v16H16v-16h16v-16H16V184h16v-16H16v-16h384v16H48v16h352
		v56H320z M72,16h16v8h16v-8h16v8h16v-8h16v8h16v-8h16v8h16v-8h16v8h16v-8h16v8h16v-8h16v8h16v-8h16v8h16v-8h16v32h-16v-8h-16v8h-16
		v-8h-16v8h-16v-8h-16v8h-16v-8h-16v8h-16v-8h-16v8h-16v-8h-16v8h-16v-8h-16v8h-16v-8H88v8H72V16z M56,64h304
		c22.056,0,40,17.944,40,40v32H16v-32C16,81.944,33.944,64,56,64z M56,480c-22.056,0-40-17.944-40-40v-32h288v32l6.592,40H56z
		 M326.776,480l-4.592-27.576C337.24,457.36,364.12,464,400,464s62.768-6.648,77.816-11.584L473.224,480H326.776z"/>
	<rect x="335.968" y="272" style="fill:#333333;" width="96" height="16"/>
	<rect x="447.968" y="272" style="fill:#333333;" width="16" height="16"/>
</g>
<g>
</g>
<g>
</g>
<g>
</g>
<g>
</g>
<g>
</g>
<g>
</g>
<g>
</g>
<g>
</g>
<g>
</g>
<g>
</g>
<g>
</g>
<g>
</g>
<g>
</g>
<g>
</g>
<g>
</g>
</svg>
