<?xml version="1.0" encoding="iso-8859-1"?>
<!-- Generator: Adobe Illustrator 19.0.0, SVG Export Plug-In . SVG Version: 6.00 Build 0)  -->
<svg version="1.1" id="Layer_1" xmlns="http://www.w3.org/2000/svg" xmlns:xlink="http://www.w3.org/1999/xlink" x="0px" y="0px"
	 viewBox="0 0 496 496" style="enable-background:new 0 0 496 496;" xml:space="preserve">
<g>
	<circle style="fill:#F9BA48;" cx="231.968" cy="64" r="24"/>
	<path style="fill:#F9BA48;" d="M262.888,96H256h-48h-6.888C191.664,96,184,103.664,184,113.112V164c0,6.624,5.376,12,12,12
		s12-5.376,12-12v12l-7.952,87.432c-0.032,0.376-0.048,0.76-0.048,1.144v2.832c0,6.96,5.64,12.6,12.6,12.6
		c6.472,0,11.888-4.904,12.536-11.344L232,200.008l6.864,68.656c0.648,6.44,6.064,11.344,12.536,11.344c6.96,0,12.6-5.64,12.6-12.6
		v-2.832c0-0.384-0.016-0.76-0.048-1.144L256,176v-12c0,6.624,5.376,12,12,12s12-5.376,12-12v-50.888
		C280,103.664,272.336,96,262.888,96z"/>
</g>
<g>
	<path style="fill:#333333;" d="M464,233.76V0H0v320h368v176h96V374.528c2.512,0.896,5.184,1.472,8,1.472c13.232,0,24-10.768,24-24
		v-75.752C496,256.104,482.456,239.088,464,233.76z M16,304V16h432v132.32c-8.504-7.632-19.696-12.32-32-12.32
		c-26.472,0-48,21.528-48,48s21.528,48,48,48c12.296,0,23.496-4.688,32-12.328V232h-32h-31.16
		c-26.944-13.752-46.592-41.68-53.872-53.208c-4.272-6.76-11.616-10.792-19.656-10.792C298.456,168,288,178.464,288,191.312
		c0,7.624,2.232,15.072,6.448,21.544c11.512,17.672,36.024,48.904,73.552,65.056V304H16z M448,184c0,17.648-14.352,32-32,32
		s-32-14.352-32-32s14.352-32,32-32C433.64,152,448,166.352,448,184z M480,352c0,4.416-3.592,8-8,8s-8-3.584-8-8v-80h-16v80v128h-24
		V368h-16v112h-24V267.008l-5.16-1.96c-37.56-14.288-62.16-47.368-70.992-60.92c-2.512-3.872-3.848-8.304-3.848-12.816
		c0-4.032,3.28-7.312,7.312-7.312c2.52,0,4.808,1.248,6.128,3.336c10.136,16.04,31.688,45.16,62.04,59.864l1.648,0.8H416h35.752
		C467.328,248,480,260.672,480,276.248L480,352L480,352z"/>
	<rect x="303.968" y="40" style="fill:#333333;" width="96" height="16"/>
	<rect x="415.968" y="40" style="fill:#333333;" width="16" height="16"/>
	<rect x="31.968" y="40" style="fill:#333333;" width="96" height="16"/>
	<rect x="143.968" y="40" style="fill:#333333;" width="16" height="16"/>
	<rect x="31.968" y="264" style="fill:#333333;" width="96" height="16"/>
	<rect x="143.968" y="264" style="fill:#333333;" width="16" height="16"/>
	<polygon style="fill:#333333;" points="88,80 72,80 72,101.408 157.024,135.424 162.968,120.568 88,90.584 	"/>
	<polygon style="fill:#333333;" points="392,101.408 392,80 376,80 376,90.584 301.024,120.568 306.968,135.424 	"/>
	<polygon style="fill:#333333;" points="72,218.048 72,240 88,240 88,229.952 162.296,207.664 157.704,192.336 	"/>
</g>
<g>
</g>
<g>
</g>
<g>
</g>
<g>
</g>
<g>
</g>
<g>
</g>
<g>
</g>
<g>
</g>
<g>
</g>
<g>
</g>
<g>
</g>
<g>
</g>
<g>
</g>
<g>
</g>
<g>
</g>
</svg>
