<?xml version="1.0" encoding="iso-8859-1"?>
<!-- Generator: Adobe Illustrator 19.0.0, SVG Export Plug-In . SVG Version: 6.00 Build 0)  -->
<svg version="1.1" id="Layer_1" xmlns="http://www.w3.org/2000/svg" xmlns:xlink="http://www.w3.org/1999/xlink" x="0px" y="0px"
	 viewBox="0 0 496 496" style="enable-background:new 0 0 496 496;" xml:space="preserve">
<circle style="fill:#F9BA48;" cx="247.972" cy="376" r="120"/>
<g>
	<path style="fill:#333333;" d="M247.996,472c-19.752,0-38.72-5.952-54.864-17.216l9.16-13.128
		c13.448,9.384,29.248,14.336,45.712,14.336c44.112,0,80-35.888,80-80s-35.888-80-80-80s-80,35.888-80,80
		c0,14.832,4.096,29.312,11.832,41.88l-13.624,8.392c-9.288-15.096-14.2-32.48-14.2-50.272c0-52.936,43.064-96,96-96
		s96,43.064,96,96S300.932,472,247.996,472z"/>
	<path style="fill:#333333;" d="M293.108,240h-97.64L306.892,0h97.64L293.108,240z M220.532,224h62.36l96.576-208h-62.36
		L220.532,224z"/>
	<path style="fill:#333333;" d="M190.364,213.008L91.468,0h97.64l50.08,107.848L190.364,213.008z M116.532,16l73.832,159.008
		l31.176-67.16L178.892,16H116.532z"/>
	<path style="fill:#333333;" d="M276.588,424c-1.272,0-2.552-0.304-3.72-0.92l-24.872-13.072l-24.872,13.072
		c-2.672,1.408-5.944,1.184-8.424-0.608c-2.464-1.792-3.696-4.824-3.176-7.824l4.752-27.696l-20.12-19.616
		c-2.176-2.128-2.96-5.304-2.024-8.2c0.944-2.896,3.448-5.008,6.464-5.448l27.8-4.04l12.44-25.192
		c2.688-5.464,11.656-5.464,14.344,0l12.44,25.192l27.808,4.04c3.016,0.44,5.512,2.552,6.464,5.448
		c0.936,2.896,0.16,6.072-2.024,8.2l-20.128,19.608l4.752,27.696c0.512,3-0.72,6.032-3.176,7.824
		C279.9,423.488,278.244,424,276.588,424z M247.996,392.968c1.28,0,2.552,0.304,3.72,0.92l14.248,7.488l-2.72-15.864
		c-0.448-2.592,0.416-5.24,2.296-7.08l11.52-11.232l-15.92-2.312c-2.608-0.376-4.856-2.016-6.024-4.376l-7.128-14.432l-7.128,14.432
		c-1.168,2.36-3.416,4-6.024,4.376l-15.92,2.312l11.52,11.232c1.88,1.832,2.744,4.488,2.296,7.08l-2.72,15.864l14.248-7.488
		C245.444,393.272,246.716,392.968,247.996,392.968z"/>
	
		<rect x="331.03" y="32.063" transform="matrix(-0.4472 0.8944 -0.8944 -0.4472 527.8471 -246.1028)" style="fill:#333333;" width="17.887" height="16"/>
	
		<rect x="315.023" y="64.043" transform="matrix(-0.4472 0.8944 -0.8944 -0.4472 533.2869 -185.5032)" style="fill:#333333;" width="17.887" height="16"/>
	
		<rect x="299.025" y="96.024" transform="matrix(-0.4472 0.8944 -0.8944 -0.4472 538.7383 -124.9107)" style="fill:#333333;" width="17.887" height="16"/>
	
		<rect x="283.044" y="128.009" transform="matrix(-0.4472 0.8944 -0.8944 -0.4472 544.2194 -64.3282)" style="fill:#333333;" width="17.887" height="16"/>
	
		<rect x="267.046" y="160.006" transform="matrix(-0.4472 0.8944 -0.8944 -0.4472 549.6851 -3.7126)" style="fill:#333333;" width="17.887" height="16"/>
	
		<rect x="251.04" y="192.011" transform="matrix(-0.4472 0.8944 -0.8944 -0.4472 555.1463 56.9217)" style="fill:#333333;" width="17.887" height="16"/>
	
		<rect x="147.988" y="31.057" transform="matrix(-0.8944 0.4472 -0.4472 -0.8944 313.3961 6.0189)" style="fill:#333333;" width="16" height="17.887"/>
	
		<rect x="163.993" y="63.059" transform="matrix(-0.8944 0.4472 -0.4472 -0.8944 358.0275 59.486)" style="fill:#333333;" width="16" height="17.887"/>
	
		<rect x="179.989" y="95.06" transform="matrix(-0.8944 0.4472 -0.4472 -0.8944 402.6438 112.9567)" style="fill:#333333;" width="16" height="17.887"/>
</g>
<g>
</g>
<g>
</g>
<g>
</g>
<g>
</g>
<g>
</g>
<g>
</g>
<g>
</g>
<g>
</g>
<g>
</g>
<g>
</g>
<g>
</g>
<g>
</g>
<g>
</g>
<g>
</g>
<g>
</g>
</svg>
